<mxfile host="app.diagrams.net" modified="2022-01-02T08:39:01.044Z" agent="5.0 (Macintosh)" etag="8GegLNKbAbtm67LIhChK" version="16.1.2" type="github">
  <diagram id="h81XLdj0SF3UibaSecvF" name="Page-1">
    <mxGraphModel dx="1033" dy="523" grid="1" gridSize="10" guides="1" tooltips="1" connect="1" arrows="1" fold="1" page="1" pageScale="1" pageWidth="827" pageHeight="1169" math="0" shadow="0">
      <root>
        <mxCell id="0" />
        <mxCell id="1" parent="0" />
        <mxCell id="C05BWgR6yRg-gC_iXJ-L-1" value="BLOCKCHAIN " style="rounded=0;whiteSpace=wrap;html=1;" vertex="1" parent="1">
          <mxGeometry x="180" y="190" width="530" height="60" as="geometry" />
        </mxCell>
      </root>
    </mxGraphModel>
  </diagram>
</mxfile>
